<svg width="186" height="42" viewBox="0 0 186 42" fill="none" xmlns="http://www.w3.org/2000/svg">
<g clip-path="url(#clip0_49_183)">
<path d="M78.7521 2.71653H78.6491C78.6257 2.19448 78.3915 1.7602 77.9418 1.40909C77.4922 1.05797 76.9489 0.882412 76.3072 0.882412H75.8248V0.540535H78.7521V2.71653ZM78.7521 18.757V20.933H75.8248V20.5911H76.3072C76.9489 20.5911 77.4969 20.411 77.9418 20.046C78.3915 19.6856 78.6257 19.2513 78.6491 18.757H78.7521ZM80.8223 0.545155V20.933H78.6538V0.545155H80.8223ZM80.7193 2.71653V0.545155H83.6466L83.6138 0.887031H83.1642C82.5225 0.887031 81.9745 1.06259 81.5296 1.41371C81.0799 1.76482 80.8457 2.20372 80.8223 2.72115H80.7193V2.71653ZM80.7193 18.757H80.8223C80.8457 19.256 81.0799 19.6856 81.5296 20.046C81.9792 20.411 82.5225 20.5911 83.1642 20.5911H83.6138L83.6466 20.933H80.7193V18.757Z" fill="#4E3F8B"/>
<path d="M89.2952 18.8263V20.933H86.7098V20.5911H87.2952C87.8245 20.5911 88.2695 20.4202 88.6395 20.0829C89.0048 19.7411 89.1921 19.3253 89.1921 18.8263H89.2952ZM89.2249 0.032341L90.705 1.93576L90.7378 20.933H89.1875V4.2827C89.1875 3.12771 89.0844 1.70938 88.8783 0.036961H89.2249V0.032341ZM89.2249 0.032341L108.311 17.7683L108.658 21.4042L89.5715 3.56661L89.2249 0.032341ZM90.7425 18.8263C90.7425 19.3253 90.9345 19.7457 91.3092 20.0829C91.6886 20.4248 92.1288 20.5911 92.6347 20.5911H93.2201V20.933H90.6347V18.8263H90.7378H90.7425ZM107.14 2.65185C107.117 2.1529 106.92 1.73248 106.555 1.39523C106.185 1.05335 105.74 0.887032 105.21 0.887032H104.625V0.545156H107.21V2.65185H107.14ZM108.658 0.545156V17.0615C108.658 17.7868 108.681 18.4844 108.728 19.1497C108.775 19.8196 108.854 20.5727 108.967 21.4089H108.658L107.14 19.6071V0.545156H108.658ZM108.555 2.65185V0.545156H111.14V0.887032H110.555C110.049 0.887032 109.608 1.05797 109.229 1.39523C108.85 1.7371 108.662 2.1529 108.662 2.65185H108.559H108.555Z" fill="#4E3F8B"/>
<path d="M116.789 2.68419H116.718C116.695 2.16214 116.498 1.73248 116.133 1.39523C115.763 1.05335 115.295 0.887031 114.718 0.887031H114.236V0.545155H117.234L116.784 2.68419H116.789ZM116.789 18.757L117.238 20.933H114.241V20.5911H114.723C115.299 20.5911 115.768 20.411 116.138 20.046C116.508 19.681 116.7 19.2513 116.723 18.757H116.793H116.789ZM118.924 0.545155V20.933H116.718V0.545155H118.924ZM128.156 0.545155V1.5985H118.854V0.545155H128.156ZM126.573 10.2286V11.2496H118.854V10.2286H126.573ZM128.189 19.8797L128.119 20.933H118.849V19.8797H128.184H128.189ZM130.118 16.0728L128.222 20.933H122.985L124.156 19.8797C125.304 19.8797 126.226 19.7133 126.929 19.3853C127.631 19.0573 128.198 18.6046 128.634 18.0271C129.069 17.4496 129.449 16.7982 129.772 16.0728H130.118ZM128.156 3.553e-07V0.882411L124.231 0.540535C124.943 0.540535 125.702 0.480476 126.503 0.351117C127.308 0.226378 127.856 0.106259 128.156 -0.0046196V3.553e-07ZM126.573 8.3575V10.2933H124.779V10.224C125.261 10.224 125.617 10.0807 125.847 9.79892C126.076 9.5171 126.194 9.18447 126.194 8.79639V8.35288H126.573V8.3575ZM126.573 11.1803V13.116H126.194V12.6725C126.194 12.2891 126.076 11.9518 125.847 11.67C125.617 11.3882 125.261 11.245 124.779 11.245V11.1757H126.573V11.1803ZM128.156 1.49687V3.8438H127.777V3.33561C127.777 2.85975 127.622 2.4532 127.313 2.11132C127.004 1.76944 126.582 1.60312 126.058 1.60312V1.50149H128.161L128.156 1.49687Z" fill="#4E3F8B"/>
<path d="M139.214 0.0692978C139.856 0.0692978 140.418 0.0923976 140.9 0.138597C141.383 0.184797 141.8 0.235616 142.156 0.291056C142.512 0.346495 142.821 0.415794 143.088 0.494334C143.35 0.572873 143.589 0.646792 143.795 0.716091L143.828 4.07942H143.416C143.416 3.15081 143.092 2.42085 142.451 1.88956C141.809 1.35826 140.807 1.09031 139.453 1.09031C138.306 1.09031 137.322 1.39984 136.507 2.02354C135.692 2.64723 135.294 3.40952 135.317 4.31504C135.317 4.61071 135.355 4.91101 135.439 5.21593C135.524 5.52084 135.659 5.82114 135.851 6.11682C136.048 6.41249 136.315 6.70817 136.662 6.99923L143.622 12.2983C144.151 12.728 144.54 13.2777 144.793 13.9476C145.046 14.6175 145.181 15.2782 145.205 15.9342C145.228 16.9321 144.966 17.8469 144.413 18.6877C143.861 19.5239 143.121 20.1892 142.193 20.6743C141.261 21.1594 140.235 21.4042 139.111 21.4042C138.446 21.4042 137.725 21.3488 136.957 21.2333C136.189 21.1178 135.472 20.9469 134.802 20.7066C134.137 20.471 133.584 20.1707 133.149 19.8057C133.079 19.487 133.046 19.085 133.046 18.5999C133.046 18.1148 133.083 17.5974 133.168 17.0522C133.252 16.5071 133.355 16.022 133.495 15.5923H133.908C133.814 16.6134 133.964 17.4819 134.357 18.2072C134.746 18.9326 135.322 19.4823 136.081 19.8566C136.84 20.2308 137.72 20.4063 138.732 20.3832C140.156 20.337 141.275 19.9813 142.09 19.3114C142.905 18.6415 143.313 17.7545 143.313 16.6457C143.313 16.1005 143.214 15.6108 143.017 15.1673C142.821 14.7238 142.507 14.3126 142.071 13.9292L135.182 8.69475C134.54 8.1496 134.104 7.549 133.875 6.89297C133.645 6.23694 133.528 5.61324 133.528 5.02651C133.528 4.0979 133.781 3.25707 134.287 2.51325C134.793 1.76482 135.477 1.16885 136.338 0.729951C137.2 0.286436 138.16 0.0692978 139.214 0.0692978ZM143.762 0.374215L143.795 0.984049H141.35V0.374215H143.762Z" fill="#4E3F8B"/>
<path d="M155.13 0.0692978C155.771 0.0692978 156.333 0.0923976 156.816 0.138597C157.298 0.184797 157.715 0.235616 158.071 0.291056C158.427 0.346495 158.736 0.415794 159.003 0.494334C159.265 0.572873 159.504 0.646792 159.71 0.716091L159.743 4.07942H159.331C159.331 3.15081 159.008 2.42085 158.366 1.88956C157.724 1.35826 156.722 1.09031 155.368 1.09031C154.221 1.09031 153.237 1.39984 152.422 2.02354C151.607 2.64723 151.209 3.40952 151.233 4.31504C151.233 4.61071 151.27 4.91101 151.354 5.21593C151.439 5.52084 151.575 5.82114 151.767 6.11682C151.963 6.41249 152.23 6.70817 152.577 6.99923L159.537 12.2983C160.066 12.728 160.455 13.2777 160.708 13.9476C160.961 14.6175 161.097 15.2782 161.12 15.9342C161.143 16.9321 160.881 17.8469 160.329 18.6877C159.776 19.5239 159.036 20.1892 158.108 20.6743C157.176 21.1594 156.151 21.4042 155.027 21.4042C154.361 21.4042 153.64 21.3488 152.872 21.2333C152.104 21.1178 151.387 20.9469 150.718 20.7066C150.052 20.471 149.5 20.1707 149.064 19.8057C148.994 19.487 148.961 19.085 148.961 18.5999C148.961 18.1148 148.999 17.5974 149.083 17.0522C149.167 16.5071 149.27 16.022 149.411 15.5923H149.823C149.729 16.6134 149.879 17.4819 150.273 18.2072C150.661 18.9326 151.237 19.4823 151.996 19.8566C152.755 20.2308 153.635 20.4063 154.647 20.3832C156.071 20.337 157.19 19.9813 158.005 19.3114C158.82 18.6415 159.228 17.7545 159.228 16.6457C159.228 16.1005 159.129 15.6108 158.933 15.1673C158.736 14.7238 158.422 14.3126 157.987 13.9292L151.097 8.69475C150.455 8.1496 150.02 7.549 149.79 6.89297C149.561 6.23694 149.444 5.61324 149.444 5.02651C149.444 4.0979 149.696 3.25707 150.202 2.51325C150.708 1.76482 151.392 1.16885 152.254 0.729951C153.116 0.286436 154.076 0.0692978 155.13 0.0692978ZM159.677 0.374215L159.71 0.984049H157.265V0.374215H159.677Z" fill="#4E3F8B"/>
<path d="M167.911 18.4521C167.659 19.1312 167.691 19.6579 168.015 20.0321C168.338 20.4063 168.703 20.5911 169.115 20.5911H169.392V20.933H162.811V20.5911H163.087C163.57 20.5911 164.061 20.4248 164.567 20.0968C165.073 19.7688 165.509 19.219 165.874 18.4475H167.907L167.911 18.4521ZM174.562 0.0692978L174.801 2.41623L166.914 20.836H164.745L172.909 3.57122C173.162 3.02607 173.373 2.55945 173.546 2.16214C173.719 1.76482 173.874 1.37674 174.01 0.988669C174.145 0.605212 174.23 0.295676 174.249 0.0692978H174.558H174.562ZM178.628 13.0144V14.0354H169.499V13.0144H178.628ZM174.562 0.0692978L184.038 20.7297H181.316L173.977 3.09537L174.562 0.0692978ZM180.384 18.4521H183.002C183.349 19.2236 183.771 19.7734 184.276 20.1014C184.782 20.4294 185.265 20.5958 185.724 20.5958H186V20.9376H178.937V20.5958H179.213C179.602 20.5958 179.958 20.411 180.281 20.0367C180.604 19.6625 180.637 19.1358 180.384 18.4567V18.4521Z" fill="#4E3F8B"/>
<path d="M78.4149 30.1775H78.3493C78.3353 29.8495 78.2088 29.5723 77.9699 29.3506C77.7311 29.1288 77.436 29.0179 77.0894 29.0179H76.8271V28.8008H78.4196V30.1775H78.4149ZM78.4149 40.323V41.6997H76.8224V41.4872H77.0847C77.436 41.4872 77.7264 41.3717 77.9652 41.1407C78.2041 40.9097 78.3306 40.6417 78.3446 40.323H78.4102H78.4149ZM79.7451 28.8008V41.6997H78.3493V28.8008H79.7451ZM88.0025 35.0146V35.6614H79.5015V35.0146H88.0025ZM79.6795 30.1775V28.8008H81.272V29.0179H81.0097C80.6631 29.0179 80.3633 29.1288 80.1151 29.3506C79.8668 29.5723 79.7451 29.8495 79.7451 30.1775H79.6795ZM79.6795 40.323H79.7451C79.7451 40.6371 79.8668 40.9097 80.1151 41.1407C80.3633 41.3717 80.6584 41.4872 81.0097 41.4872H81.272V41.6997H79.6795V40.323ZM87.8526 30.1775H87.787C87.773 29.8495 87.6465 29.5723 87.4076 29.3506C87.1688 29.1288 86.8737 29.0179 86.5271 29.0179H86.2648V28.8008H87.8573V30.1775H87.8526ZM87.8526 40.323V41.6997H86.2601V41.4872H86.5224C86.8737 41.4872 87.1641 41.3717 87.4029 41.1407C87.6418 40.9097 87.7683 40.6417 87.7823 40.323H87.8479H87.8526ZM89.1828 28.8008V41.6997H87.787V28.8008H89.1828ZM89.1172 30.1775V28.8008H90.7097V29.0179H90.4474C90.0961 29.0179 89.8057 29.1288 89.5668 29.3506C89.328 29.5723 89.2015 29.8495 89.1874 30.1775H89.1219H89.1172ZM89.1172 40.323H89.1828C89.1968 40.6371 89.3233 40.9097 89.5621 41.1407C89.801 41.3717 90.0961 41.4872 90.4427 41.4872H90.705V41.6997H89.1125V40.323H89.1172Z" fill="#4E3F8B"/>
<path d="M99.9928 28.5005C101.009 28.5005 101.965 28.6622 102.859 28.9856C103.754 29.309 104.536 29.771 105.215 30.3716C105.89 30.9722 106.419 31.6883 106.794 32.5106C107.173 33.333 107.36 34.2477 107.36 35.2502C107.36 36.2528 107.173 37.1675 106.794 37.9899C106.414 38.8122 105.89 39.5283 105.215 40.1289C104.541 40.7295 103.754 41.1915 102.859 41.5149C101.965 41.8383 101.009 42 99.9928 42C98.9764 42 98.0256 41.8383 97.1357 41.5149C96.2505 41.1915 95.4683 40.7295 94.7939 40.1289C94.1194 39.5283 93.5901 38.8122 93.2154 37.9899C92.8407 37.1675 92.6487 36.2528 92.6487 35.2502C92.6487 34.2477 92.8361 33.333 93.2154 32.5106C93.5948 31.6883 94.1194 30.9722 94.7939 30.3716C95.4683 29.771 96.2505 29.309 97.1357 28.9856C98.0209 28.6622 98.9717 28.5005 99.9928 28.5005ZM99.9928 41.3578C101.065 41.3578 102.04 41.0991 102.915 40.5817C103.787 40.0642 104.475 39.3481 104.986 38.4334C105.496 37.5186 105.749 36.4561 105.749 35.2502C105.749 34.0444 105.496 32.968 104.986 32.0579C104.475 31.1477 103.787 30.4363 102.915 29.9188C102.044 29.4014 101.07 29.1427 99.9928 29.1427C98.9155 29.1427 97.9647 29.4014 97.0936 29.9188C96.2224 30.4363 95.5339 31.1477 95.0234 32.0579C94.5128 32.968 94.2599 34.0306 94.2599 35.2502C94.2599 36.4699 94.5128 37.514 95.0234 38.4334C95.5339 39.3528 96.2224 40.0689 97.0936 40.5817C97.9647 41.0991 98.9296 41.3578 99.9928 41.3578Z" fill="#4E3F8B"/>
<path d="M110.911 30.1775H110.868C110.854 29.8495 110.723 29.5723 110.475 29.3506C110.227 29.1288 109.922 29.0179 109.557 29.0179H109.295V28.8008H110.906V30.1775H110.911ZM110.911 40.323L111.192 41.6997H109.295V41.4872H109.599C109.96 41.4872 110.26 41.3717 110.494 41.1407C110.728 40.9097 110.85 40.6417 110.864 40.323H110.906H110.911ZM112.259 28.8008V41.6997H110.864V28.8008H112.259ZM112.194 30.1775V28.8008H113.805V29.0179H113.543C113.196 29.0179 112.892 29.1288 112.639 29.3506C112.386 29.5723 112.259 29.8495 112.259 30.1775H112.194ZM118.123 41.0344L118.081 41.6997H112.217V41.0344H118.123ZM119.346 38.6274L118.147 41.6997H114.836L115.576 41.0344C116.302 41.0344 116.887 40.9328 117.332 40.7249C117.777 40.517 118.133 40.2306 118.409 39.8656C118.686 39.5006 118.924 39.0894 119.13 38.6274H119.351H119.346Z" fill="#4E3F8B"/>
<path d="M122.025 30.2006H121.983C121.969 29.8588 121.842 29.5723 121.603 29.3506C121.365 29.1288 121.07 29.0179 120.723 29.0179H120.461V28.8008H122.03V30.196L122.025 30.2006ZM122.025 40.3045V41.6997H120.456V41.4872H120.737C121.084 41.4872 121.379 41.3671 121.608 41.1314C121.838 40.8958 121.964 40.6186 121.978 40.3045H122.02H122.025ZM123.397 28.8008V41.6997H121.983V28.8008H123.397ZM127.734 28.8008C129.172 28.8008 130.414 29.0595 131.463 29.5723C132.507 30.0898 133.317 30.8289 133.884 31.7991C134.451 32.7693 134.732 33.9151 134.732 35.2502C134.732 36.5854 134.451 37.7312 133.884 38.6875C133.317 39.6484 132.512 40.3876 131.463 40.9143C130.418 41.4364 129.172 41.6997 127.734 41.6997H123.093L123.051 41.0529H127.734C129.421 41.0529 130.746 40.5355 131.711 39.496C132.676 38.4565 133.158 37.0428 133.158 35.2502C133.158 33.4577 132.676 32.044 131.711 31.0045C130.746 29.965 129.421 29.4476 127.734 29.4476H122.831V28.8008H127.734Z" fill="#4E3F8B"/>
<path d="M138.545 30.1775H138.479C138.465 29.8495 138.315 29.5723 138.034 29.3506C137.753 29.1288 137.406 29.0179 136.999 29.0179H136.694V28.8008H138.549V30.1775H138.545ZM138.545 40.323V41.6997H136.69V41.4872H136.994C137.402 41.4872 137.748 41.3717 138.029 41.1407C138.31 40.9097 138.46 40.6417 138.474 40.323H138.54H138.545ZM139.851 28.8008V41.6997H138.479V28.8008H139.851ZM139.786 30.1775V28.8008H141.64L141.617 29.0179H141.336C140.929 29.0179 140.582 29.1288 140.301 29.3506C140.02 29.5723 139.87 29.8495 139.856 30.1775H139.79H139.786ZM139.786 40.323H139.851C139.865 40.6371 140.015 40.9097 140.296 41.1407C140.582 41.3717 140.924 41.4872 141.331 41.4872H141.612L141.636 41.6997H139.781V40.323H139.786Z" fill="#4E3F8B"/>
<path d="M145.214 40.3692V41.6997H143.58V41.4872H143.95C144.282 41.4872 144.568 41.3809 144.797 41.1638C145.031 40.9466 145.144 40.6833 145.144 40.3692H145.209H145.214ZM145.172 28.4774L146.109 29.6832L146.132 41.6997H145.153V31.1662C145.153 30.4363 145.088 29.54 144.957 28.4774H145.172ZM145.172 28.4774L157.247 39.6993L157.467 42L145.392 30.7135L145.177 28.4774H145.172ZM146.127 40.3692C146.127 40.6833 146.249 40.9513 146.488 41.1638C146.727 41.3763 147.008 41.4872 147.327 41.4872H147.697V41.6997H146.062V40.3692H146.127ZM156.502 30.136C156.488 29.8218 156.366 29.5538 156.132 29.3413C155.898 29.1288 155.617 29.0179 155.284 29.0179H154.914V28.8008H156.549V30.1313H156.507L156.502 30.136ZM157.462 28.8008V39.2465C157.462 39.7039 157.476 40.1474 157.504 40.5678C157.532 40.9928 157.584 41.4687 157.659 41.9954H157.462L156.502 40.8543V28.7962H157.462V28.8008ZM157.397 30.136V28.8054H159.031V29.0225H158.661C158.343 29.0225 158.062 29.1288 157.823 29.3459C157.584 29.5631 157.462 29.8264 157.462 30.1406H157.397V30.136Z" fill="#4E3F8B"/>
<path d="M167.921 28.5005C168.591 28.5005 169.218 28.5467 169.808 28.6391C170.399 28.7315 170.956 28.8747 171.485 29.0687C172.014 29.2628 172.52 29.5076 172.998 29.8126L173.476 32.8432H173.279C173.073 31.9978 172.745 31.3048 172.286 30.7597C171.827 30.2145 171.237 29.8126 170.511 29.5446C169.785 29.2813 168.914 29.1473 167.897 29.1473C166.792 29.1473 165.823 29.3968 164.989 29.8911C164.155 30.3854 163.504 31.0877 163.04 31.9978C162.577 32.9079 162.343 33.9936 162.343 35.2549C162.343 36.5161 162.577 37.5833 163.04 38.5027C163.504 39.4221 164.16 40.1243 165.003 40.6186C165.846 41.113 166.82 41.3624 167.926 41.3624C168.534 41.3624 169.115 41.2978 169.668 41.1684C170.221 41.039 170.754 40.8358 171.27 40.554C171.785 40.2721 172.267 39.921 172.717 39.4914L172.74 36.6316C172.754 36.359 172.67 36.1511 172.487 36.0079C172.305 35.8647 172.057 35.7954 171.733 35.7954H171.429V35.5783H175.419V35.7954H175.115C174.459 35.7954 174.136 36.0818 174.136 36.6547V39.2326C173.804 39.6484 173.345 40.0735 172.764 40.5031C172.183 40.9328 171.49 41.2931 170.684 41.5796C169.879 41.866 168.961 42.0092 167.926 42.0092C166.488 41.9954 165.232 41.7136 164.164 41.173C163.097 40.6279 162.263 39.8563 161.668 38.8492C161.073 37.8467 160.773 36.6501 160.773 35.2595C160.773 33.8689 161.073 32.6492 161.668 31.6467C162.263 30.6442 163.097 29.868 164.174 29.3228C165.246 28.7777 166.497 28.5051 167.921 28.5051V28.5005Z" fill="#4E3F8B"/>
<path d="M180.956 28.5005C181.363 28.5005 181.719 28.5144 182.024 28.5421C182.328 28.5698 182.595 28.6021 182.82 28.6391C183.045 28.6761 183.241 28.7176 183.41 28.7685C183.579 28.8193 183.724 28.8655 183.855 28.907L183.878 31.0368H183.616C183.616 30.4501 183.415 29.9881 183.007 29.6509C182.6 29.3136 181.967 29.1473 181.11 29.1473C180.384 29.1473 179.761 29.3459 179.246 29.7386C178.731 30.1313 178.478 30.6164 178.492 31.1893C178.492 31.3741 178.515 31.5635 178.567 31.7576C178.618 31.9516 178.703 32.141 178.829 32.3258C178.951 32.5106 179.124 32.7 179.34 32.8848L183.742 36.2389C184.075 36.5115 184.323 36.858 184.482 37.283C184.642 37.7081 184.731 38.1239 184.745 38.5397C184.759 39.1726 184.59 39.7501 184.244 40.2814C183.892 40.8127 183.424 41.2331 182.838 41.538C182.248 41.8475 181.602 42 180.89 42C180.469 42 180.014 41.963 179.527 41.8937C179.04 41.8198 178.586 41.7089 178.164 41.5611C177.743 41.4086 177.396 41.2192 177.12 40.9928C177.078 40.7942 177.054 40.5401 177.054 40.2306C177.054 39.921 177.077 39.5976 177.129 39.2511C177.181 38.9046 177.251 38.5997 177.335 38.3271H177.597C177.541 38.9739 177.635 39.5237 177.878 39.9811C178.127 40.4385 178.487 40.7896 178.97 41.0252C179.447 41.2608 180.01 41.3717 180.646 41.3578C181.546 41.3301 182.253 41.1037 182.773 40.6787C183.293 40.2537 183.546 39.6946 183.546 38.9924C183.546 38.6505 183.485 38.3364 183.358 38.0592C183.237 37.7774 183.035 37.5186 182.759 37.2738L178.398 33.9613C177.991 33.6148 177.714 33.2359 177.569 32.8201C177.424 32.4044 177.354 32.0117 177.354 31.6374C177.354 31.0507 177.513 30.5194 177.832 30.0482C178.15 29.5769 178.586 29.1981 179.129 28.9209C179.672 28.6437 180.281 28.5005 180.951 28.5005H180.956ZM183.831 28.6945L183.855 29.0826H182.309V28.6945H183.836H183.831Z" fill="#4E3F8B"/>
<path fill-rule="evenodd" clip-rule="evenodd" d="M44.4719 31.582L44.5515 31.6605C44.5515 31.6051 44.5234 31.582 44.4719 31.582ZM26.285 40.3923V40.4708C26.285 40.4154 26.2569 40.3923 26.2054 40.3923H26.285ZM29.5355 22.2913C29.2639 22.9843 29.0063 23.668 28.7627 24.3333C28.5192 24.9986 28.2616 25.71 27.9899 26.4539C27.7744 27.096 27.5824 27.7197 27.4232 28.3342C27.2592 28.9486 27.1 29.5769 26.9361 30.2145C27.1515 30.1591 27.3435 30.1082 27.5028 30.0528C27.6667 29.9974 27.826 29.9465 27.9899 29.8911C28.0976 29.7848 28.2334 29.7155 28.3974 29.6924C28.5613 29.6647 28.6971 29.6 28.8049 29.4938H28.8845C28.9407 29.4383 28.9782 29.4152 29.0063 29.4152C29.0344 29.4152 29.0718 29.3875 29.128 29.3367C29.292 29.3367 29.4278 29.2813 29.5355 29.175C30.8891 28.482 32.1865 27.7059 33.4324 26.8512C34.6783 25.9965 35.896 25.1141 37.0857 24.2086C39.6852 22.0187 42.013 19.778 44.0691 17.4819C45.0995 16.3593 46.0738 15.2135 46.9918 14.04C47.9098 12.8666 48.7528 11.6377 49.5069 10.3579C49.8301 9.7712 50.1299 9.22143 50.4015 8.71786C50.6732 8.20966 50.9167 7.66451 51.1322 7.07777L51.3757 6.35706C51.4319 6.2508 51.4553 6.17226 51.4553 6.11682C51.4553 6.06138 51.4834 6.01056 51.535 5.95512V5.71488C51.6989 5.34067 51.7785 4.91563 51.7785 4.43516V3.39567C51.6708 3.18315 51.6146 3.02145 51.6146 2.91519C51.5584 2.85975 51.535 2.80893 51.535 2.75349C51.535 2.75349 51.5069 2.69805 51.4553 2.5918L51.2914 2.4301V2.35156H51.2118L51.0479 2.18986C50.9917 2.18986 50.9401 2.16214 50.8839 2.11132C50.8277 2.11132 50.8043 2.0836 50.8043 2.03278C50.6966 2.03278 50.6263 2.01892 50.6029 1.9912C50.5748 1.96348 50.5373 1.94962 50.4811 1.94962H50.4015C50.2938 1.89418 50.158 1.87108 49.994 1.87108C49.9378 1.87108 49.9004 1.85722 49.8723 1.8295C49.8441 1.80178 49.7786 1.78792 49.6709 1.78792H48.5327C48.2095 1.78792 47.9098 1.81564 47.6381 1.86646H47.3946C47.1791 1.86646 47.0152 1.89418 46.9075 1.945C46.692 1.945 46.4203 2.00044 46.0972 2.1067C45.8255 2.21296 45.5539 2.30536 45.2869 2.38852C45.0152 2.46706 44.7436 2.56408 44.4766 2.67034L44.3127 2.74887C44.2565 2.74887 44.2049 2.77659 44.1487 2.82741C43.9333 2.93367 43.8256 2.98911 43.8256 2.98911C43.6101 3.09537 43.3385 3.25707 43.0153 3.46959C42.7436 3.63129 42.472 3.78836 42.205 3.95006C41.9333 4.11176 41.6898 4.29656 41.4743 4.50908C40.8795 4.88329 40.3502 5.29447 39.8912 5.75184C39.4322 6.2046 38.9592 6.64812 38.4721 7.07315C38.2566 7.34111 38.0505 7.59521 37.8632 7.83544C37.6758 8.07568 37.4416 8.32978 37.1747 8.59774C36.9592 8.86569 36.7438 9.14289 36.5236 9.43857C36.3082 9.73425 36.0927 10.0392 35.8726 10.3579C34.8984 11.6377 34.0881 12.8666 33.4371 14.04C32.6783 15.3752 31.9757 16.7381 31.3247 18.1241C30.6737 19.5101 30.0788 20.9007 29.5402 22.2867L29.5355 22.2913ZM70.3682 31.1015C70.5322 31.2078 70.7054 31.3972 70.8975 31.6605C71.0848 31.9285 71.0474 32.1133 70.7757 32.2196C68.3964 33.4485 66.0405 34.5665 63.7127 35.5829C62.1436 36.2251 60.5465 36.8257 58.9212 37.3847C57.296 37.9437 55.6473 38.304 53.9705 38.4657C52.9401 38.572 51.9425 38.5304 50.9682 38.3456C49.994 38.1608 49.076 37.7727 48.2095 37.186C47.6147 36.761 47.1135 36.2528 46.7061 35.666C46.2986 35.0793 45.9613 34.4649 45.6897 33.8227C45.6335 33.7164 45.582 33.5824 45.5258 33.4207C45.4695 33.259 45.418 33.1251 45.3618 33.0188C45.2541 32.9126 45.1979 32.8063 45.1979 32.7C45.1417 32.6446 45.1183 32.5938 45.1183 32.5383L45.0386 32.4598C44.9824 32.3535 44.9309 32.2473 44.8747 32.141C44.8185 32.0348 44.767 31.9285 44.7108 31.8222L44.4672 31.582V31.5035H44.0597C44.0597 31.5589 44.0035 31.582 43.8958 31.582C43.7881 31.582 43.6804 31.6097 43.5726 31.6605L42.842 31.9008C42.6265 32.007 42.4626 32.0625 42.3549 32.0625V32.141H42.2753C42.219 32.141 42.1956 32.1549 42.1956 32.1826C42.1956 32.2103 42.1675 32.2242 42.116 32.2242C41.4134 32.543 40.8186 32.8895 40.3315 33.2637C38.9264 34.1184 37.5868 35.0239 36.3129 35.9848C35.0389 36.9458 33.7556 37.879 32.4582 38.7891C31.3762 39.6438 30.2943 40.3923 29.2123 41.0298C28.833 41.2423 28.4395 41.4548 28.0367 41.672C27.6292 41.8845 27.2124 41.9677 26.7768 41.9122C25.8588 41.8568 25.1375 41.5242 24.627 40.9097C24.1118 40.2952 23.8026 39.5884 23.6949 38.7891C23.531 37.8282 23.4935 36.8672 23.5731 35.9063C23.6528 34.9453 23.7745 33.9844 23.9385 33.0234C24.1539 31.6883 24.4256 30.367 24.7488 29.0595C25.0719 27.7521 25.4513 26.4585 25.8869 25.1741C26.374 23.6773 26.8892 22.2266 27.4278 20.8083C27.9712 19.3946 28.5894 17.9901 29.2967 16.6041C29.9477 15.2181 30.6643 13.8691 31.4465 12.5617C32.2333 11.2542 33.0858 9.98372 34.0038 8.75943C34.8703 7.63679 35.7742 6.55572 36.725 5.51623C37.6712 4.47674 38.7156 3.55275 39.8491 2.75349C40.931 2.00506 42.0692 1.40447 43.2588 0.951712C44.4485 0.498957 45.6663 0.21714 46.9121 0.110881C48.1018 0.00462164 49.2915 0.110881 50.4858 0.429657C51.6755 0.748434 52.6497 1.41833 53.4085 2.4301C53.9518 3.22935 54.1672 4.11176 54.0595 5.07271C53.9518 6.03366 53.7597 6.96689 53.4928 7.87702C53.0619 9.10593 52.4905 10.2794 51.7879 11.402C51.0853 12.5247 50.3266 13.6196 49.5163 14.6868C47.6241 17.2509 45.4555 19.7318 43.02 22.1342C41.7741 23.2568 40.5282 24.3518 39.287 25.419C38.0412 26.4862 36.7438 27.4749 35.3902 28.3804C34.2005 29.1288 32.9968 29.8218 31.779 30.464C30.5613 31.1062 29.2498 31.6374 27.84 32.0671C27.4606 32.1734 27.0532 32.0671 26.6222 31.7483C26.1913 33.5085 25.9478 35.2456 25.8916 36.955C25.8354 37.4355 25.8354 37.8882 25.8916 38.3179V39.1172C25.8916 39.1726 25.9056 39.2234 25.9337 39.2789C25.9618 39.3343 25.9759 39.3343 25.9759 39.2789C25.9759 39.4914 26.0321 39.7593 26.1398 40.0781V40.1566H26.3038C26.36 40.1012 26.4115 40.0781 26.4677 40.0781C26.4677 40.0781 26.5754 40.0227 26.7909 39.9164C27.0063 39.8101 27.2218 39.6762 27.4419 39.5145C27.6574 39.3528 27.8728 39.2188 28.0929 39.1125C29.3388 38.2578 30.5566 37.3893 31.7462 36.5115C32.9359 35.6291 34.1537 34.7374 35.3995 33.8273C35.9944 33.4023 36.6033 32.9726 37.2262 32.5476C37.8491 32.1225 38.4861 31.7206 39.1325 31.3464C39.6758 31.0784 40.2144 30.8012 40.7577 30.5056C41.301 30.2099 41.8678 30.0112 42.4626 29.905C43.8677 29.637 45.0621 29.9835 46.0363 30.9445C46.4157 31.2632 46.7388 31.7206 47.0105 32.3073C47.1744 32.5753 47.3196 32.8433 47.4554 33.1066C47.5913 33.3745 47.7131 33.6425 47.8208 33.9058C47.8208 33.9613 47.877 34.0906 47.9847 34.3078V34.3863L48.0643 34.4649C48.1205 34.6266 48.2517 34.8668 48.4718 35.1856C48.528 35.2918 48.5655 35.3611 48.5936 35.3842C48.6217 35.4119 48.6592 35.4766 48.7154 35.5829L48.795 35.6614C48.795 35.7169 48.8231 35.74 48.8746 35.74C48.8184 35.74 48.795 35.7122 48.795 35.6614C48.8512 35.7677 48.9027 35.837 48.9589 35.8601C49.0151 35.8878 49.0666 35.9248 49.1229 35.9802C49.2306 36.0865 49.2868 36.1419 49.2868 36.1419C49.2868 36.1419 49.343 36.1973 49.4507 36.3036C49.5069 36.359 49.5584 36.3821 49.6146 36.3821C49.6709 36.3821 49.7224 36.4099 49.7786 36.4607C49.8348 36.5161 49.9144 36.5392 50.0221 36.5392C50.0783 36.5947 50.158 36.6178 50.2657 36.6178C50.3734 36.6732 50.4671 36.6963 50.5514 36.6963C50.6357 36.6963 50.7294 36.724 50.8371 36.7748H51.2446C51.5162 36.8303 51.7738 36.8395 52.0174 36.8164C52.2609 36.7887 52.5186 36.7748 52.7902 36.7748C52.9541 36.7748 53.09 36.7471 53.1977 36.6963H53.4412C53.6052 36.6409 53.7644 36.6178 53.9284 36.6178C54.0923 36.6178 54.2281 36.59 54.3358 36.5392C54.7152 36.433 55.0805 36.3406 55.4318 36.2574C55.7831 36.1789 56.1484 36.0818 56.5278 35.9756C58.6917 35.3889 60.79 34.6266 62.8181 33.6933C64.8461 32.7601 66.8648 31.7853 68.8647 30.7689C69.1364 30.6626 69.4081 30.6488 69.675 30.7273C69.9467 30.8059 70.1902 30.926 70.4057 31.0877L70.3682 31.1015ZM49.2634 36.1465C49.1556 36.0911 49.0994 36.0541 49.0994 36.0264C49.0994 35.9987 49.1556 36.0403 49.2634 36.1465Z" fill="#4E3F8B"/>
<path fill-rule="evenodd" clip-rule="evenodd" d="M8.28079 16.5441V16.6226V16.5441ZM6.49629 20.3047C6.38857 20.0922 6.38857 19.9305 6.49629 19.8242L6.57592 19.7457C6.57592 19.4269 6.63212 18.9973 6.73985 18.466C6.84757 18.0409 6.96935 17.5974 7.10518 17.1446C7.24101 16.6919 7.49861 16.3315 7.87799 16.0636C8.3651 15.7956 8.94588 15.8233 9.62502 16.1421C10.2995 16.4609 10.6133 16.9183 10.5571 17.505C10.5009 17.93 10.3791 18.3181 10.1918 18.6646C10.0044 19.0111 9.79832 19.3437 9.58287 19.6671C9.36741 19.9859 9.09576 20.3601 8.77258 20.7898V21.3488C8.77258 21.6168 8.63675 21.7646 8.3651 21.7877C7.789 21.8431 7.22695 21.5844 6.82415 21.1871C6.6087 20.9746 6.50098 20.7621 6.50098 20.5449V20.3047H6.49629ZM3.3301 37.4447H3.25047H3.3301ZM2.92261 37.2045L3.00224 37.283C2.94603 37.283 2.92261 37.2553 2.92261 37.2045ZM27.826 32.0902C26.1305 32.7786 24.4443 33.4531 22.7722 34.1184C19.2969 35.4997 15.756 36.7379 12.1776 37.842C10.4447 38.378 8.68828 38.7753 6.89909 39.0432C6.30426 39.1495 5.66727 39.2049 4.99282 39.2049C4.31836 39.2049 3.68138 39.0987 3.08654 38.8861C2.11233 38.5119 1.35357 37.9252 0.814938 37.1259C0.27631 36.3267 0.00465393 35.4166 0.00465393 34.4048C0.00465393 33.4438 0.140482 32.4968 0.412138 31.5635C0.683794 30.6303 1.03507 29.734 1.46598 28.8793C1.89688 27.8629 2.38398 26.9297 2.9273 26.075C3.03502 25.8625 3.23642 25.7562 3.53618 25.7562C3.83594 25.7562 4.11696 25.8348 4.38862 25.9965C4.66027 26.1582 4.87573 26.343 5.03966 26.5555C5.20359 26.768 5.20359 26.9805 5.03966 27.1977C5.03966 27.3039 5.01155 27.3825 4.96003 27.4379C4.25747 28.6668 3.66264 29.868 3.17553 31.0415C3.0116 31.5219 2.87578 31.9608 2.76805 32.3628C2.66032 32.7647 2.5526 33.2036 2.44487 33.6841C2.33715 34.22 2.28094 34.6728 2.28094 35.047V35.6891C2.28094 35.7954 2.30905 35.8739 2.36057 35.9294V36.0911C2.41677 36.1973 2.44019 36.2897 2.44019 36.3729C2.44019 36.4561 2.46829 36.5485 2.51981 36.6547C2.51981 36.7933 2.59944 36.6732 2.59944 36.8164C2.59944 36.8719 2.65564 36.9504 2.76337 37.0566V37.1352C2.90388 37.1352 2.7821 37.2137 2.9273 37.2137C2.9273 37.3523 3.00692 37.2322 3.00692 37.3754H3.17085V37.454H3.49403C3.49403 37.454 3.52213 37.4817 3.57365 37.5325H4.38393C4.65559 37.5325 4.92725 37.5048 5.19422 37.454C5.30194 37.454 5.38157 37.4262 5.43777 37.3754C5.62044 37.3754 5.84057 37.3754 6.0045 37.2969C6.27616 37.2969 6.62744 37.2414 7.05834 37.1352C8.89904 36.7101 10.6976 36.2158 12.4587 35.6522C14.2198 35.0885 15.9621 34.4926 17.6951 33.8504C21.1048 32.5707 24.5146 31.2078 27.9243 29.7664C28.1398 29.6693 28.3552 29.5769 28.5613 29.4845L28.1726 30.7042C27.929 30.9722 27.9431 31.2216 27.8494 31.5266C27.8353 31.5681 27.8119 31.8638 27.8166 32.0994L27.826 32.0902ZM3.16617 37.4447H3.24579C3.13806 37.3893 3.05844 37.3662 3.00224 37.3662C3.07249 37.3662 3.16617 37.3477 3.16617 37.4447Z" fill="#4E3F8B"/>
</g>
<defs>
<clipPath id="clip0_49_183">
<rect width="186" height="42" fill="white"/>
</clipPath>
</defs>
</svg>
